<?xml version="1.0" standalone="no"?>
<!DOCTYPE svg PUBLIC "-//W3C//DTD SVG 20010904//EN"
 "http://www.w3.org/TR/2001/REC-SVG-20010904/DTD/svg10.dtd">
<svg version="1.0" xmlns="http://www.w3.org/2000/svg"
 width="880.000000pt" height="880.000000pt" viewBox="0 0 880.000000 880.000000"
 preserveAspectRatio="xMidYMid meet">
<metadata>
Created by potrace 1.11, written by Peter Selinger 2001-2013
</metadata>
<g transform="translate(0.000000,880.000000) scale(0.100000,-0.100000)"
fill="#000000" stroke="none">
<path d="M3138 8765 c-2 -3 -13 -6 -24 -8 -18 -4 -26 -6 -69 -23 -11 -4 -22
-8 -25 -9 -20 -7 -46 -20 -50 -24 -3 -4 -24 -19 -48 -34 -48 -31 -142 -122
-142 -137 0 -5 -3 -10 -7 -10 -11 0 -61 -81 -94 -150 -26 -56 -81 -231 -82
-260 0 -8 -6 -51 -13 -95 -7 -50 -11 -146 -9 -255 4 -185 11 -275 29 -370 3
-14 7 -41 10 -60 10 -77 31 -169 73 -320 44 -163 146 -402 225 -526 21 -34 38
-64 38 -67 0 -4 7 -15 15 -24 8 -10 42 -56 76 -102 56 -76 187 -216 249 -266
32 -26 248 -185 339 -250 39 -27 71 -52 71 -55 0 -3 -545 -5 -1211 -5 -666 0
-1214 -2 -1218 -5 -4 -3 -7 -238 -7 -522 l1 -517 257 0 c141 1 260 -1 265 -4
4 -3 8 -1047 8 -2321 0 -1274 2 -2317 5 -2317 3 -1 1158 -2 2567 -3 1728 -1
2564 2 2566 9 7 19 11 2908 6 4122 -1 277 0 506 3 509 4 3 137 6 297 6 l291 0
0 518 c0 405 -3 519 -12 522 -7 2 -554 4 -1215 4 -662 -1 -1203 1 -1203 4 0 3
64 50 142 105 77 55 146 105 152 110 6 6 41 35 76 65 71 60 125 115 173 174
18 21 38 44 45 51 6 8 12 16 12 19 0 5 22 34 45 60 49 52 198 334 250 471 28
73 73 215 79 250 2 11 9 38 15 60 22 84 55 262 66 365 38 338 21 579 -56 796
-27 77 -39 103 -81 174 -33 57 -150 182 -200 213 -71 44 -116 65 -188 85 -8 3
-59 6 -114 7 -81 3 -110 -1 -165 -20 -106 -36 -228 -105 -292 -165 -8 -8 -31
-29 -50 -46 -63 -56 -178 -199 -208 -256 -8 -16 -17 -28 -20 -28 -4 0 -15 -20
-26 -45 -11 -25 -23 -45 -27 -45 -5 0 -8 -5 -8 -10 0 -6 -14 -41 -31 -78 -17
-36 -32 -71 -34 -77 -1 -5 -7 -23 -13 -38 -7 -15 -15 -40 -18 -55 -4 -15 -10
-31 -14 -37 -21 -27 -124 -433 -135 -530 -2 -11 -6 -36 -9 -55 -12 -61 -15
-83 -21 -155 -4 -38 -8 -77 -10 -87 -12 -58 -18 -227 -19 -463 -1 -267 6 -422
28 -615 2 -19 7 -64 11 -100 4 -36 9 -68 11 -71 2 -4 2 -13 -1 -21 -4 -9 -29
-13 -98 -13 -104 1 -99 -4 -83 90 4 22 8 58 10 80 5 54 17 172 22 215 25 224
20 765 -10 995 -3 22 -8 63 -11 90 -3 28 -10 73 -15 100 -5 28 -14 79 -21 115
-6 36 -13 72 -15 80 -2 8 -12 51 -23 95 -65 273 -187 581 -283 719 -162 233
-363 400 -548 453 -50 15 -242 28 -252 18z m301 -445 c52 -53 57 -59 97 -121
16 -24 31 -46 34 -49 18 -17 129 -215 163 -290 30 -67 89 -231 102 -286 20
-83 47 -210 55 -264 5 -36 12 -76 15 -90 3 -14 8 -45 11 -70 3 -25 7 -56 9
-70 5 -31 11 -80 19 -145 4 -27 9 -61 13 -75 3 -14 7 -45 8 -70 2 -25 6 -63 9
-85 3 -22 8 -69 11 -105 3 -36 8 -90 11 -120 20 -227 33 -644 21 -656 -3 -3
-32 21 -65 53 -33 32 -98 92 -143 133 -169 154 -323 312 -419 431 -39 48 -130
178 -130 186 0 2 -14 37 -31 76 -74 172 -97 228 -141 352 -22 61 -41 115 -42
120 -1 6 -8 30 -15 55 -7 25 -14 52 -16 60 -2 8 -10 42 -18 75 -14 56 -24 106
-34 180 -8 62 -9 288 -1 339 4 30 10 69 12 87 3 19 5 34 6 34 2 0 5 14 14 53
10 47 69 141 125 199 138 144 222 161 320 63z m2096 -20 c74 -51 192 -192 200
-240 0 -3 8 -27 17 -55 9 -27 20 -70 23 -95 4 -25 9 -58 12 -75 5 -31 5 -250
-1 -295 -9 -74 -22 -158 -25 -162 -2 -2 -4 -15 -6 -29 -2 -14 -9 -45 -15 -70
-7 -24 -14 -51 -15 -59 -14 -68 -145 -418 -200 -538 -14 -29 -25 -57 -25 -63
0 -27 -146 -229 -240 -332 -103 -113 -337 -337 -352 -337 -5 0 -8 -7 -8 -15 0
-8 -4 -15 -9 -15 -5 0 -42 -31 -82 -70 -41 -38 -77 -70 -80 -70 -7 0 -3 289 6
445 4 66 9 140 10 165 1 25 6 77 10 115 4 39 8 81 10 95 10 99 17 164 20 178
1 9 6 42 9 73 4 31 8 66 10 76 3 11 7 44 11 73 4 29 8 60 10 69 1 9 6 39 9 66
6 44 12 85 31 190 28 163 92 374 155 510 31 68 137 255 151 265 3 3 12 16 19
30 19 37 92 133 112 148 9 7 24 20 33 29 48 48 124 45 200 -7z"/>
</g>
</svg>
