<svg version="1.0" xmlns="http://www.w3.org/2000/svg"
 width="512" height="512" viewBox="0 0 512 512">
  <g transform="translate(0.000000,512.000000) scale(0.100000,-0.100000)"
  fill="#90bf33" stroke="none">
    <path d="M1705 3810 c-55 -27 -379 -354 -400 -402 -19 -48 -19 -138 0 -186 11
    -25 120 -142 328 -349 l312 -313 -312 -312 c-171 -172 -318 -327 -327 -345
    -22 -44 -21 -147 3 -198 25 -53 353 -379 403 -400 48 -19 138 -19 186 0 25 11
    142 120 350 328 l312 312 313 -312 c171 -171 326 -318 344 -327 41 -21 142
    -21 191 -1 50 21 378 347 403 400 24 51 25 154 3 198 -9 18 -156 173 -327 345
    l-312 312 312 313 c208 207 317 324 328 349 19 48 19 138 0 186 -21 49 -346
    376 -401 402 -51 25 -151 27 -197 4 -18 -9 -173 -156 -345 -327 l-312 -312
    -313 312 c-209 209 -324 317 -349 328 -53 22 -144 19 -193 -5z"/>
  </g>
</svg>
